# xmcd
#
# Track frame offsets:
#	150
#	12593
#	27244
#	41766
#	53206
#	73336
#	83330
#	93495
#	107484
#	118206
#	130482
#	143200
#
# Disc length: 2100 seconds
#
# Revision: 0
# Processed by: cddbd v1.5.2PL0 Copyright (c) Steve Scherf et al.
# Submitted via: dBpowerAMP V4.0
#
DISCID=a908320c
DTITLE=Sam and Dave - I Thank You
DYEAR=1900
DGENRE=Soul
TTITLE0=I Thank You
TTITLE1=Everybody Got To Believe In Somebody
TTITLE2=These Arms Of Mine
TTITLE3=Wrap It Up
TTITLE4=If I Didn't Have A Girl Like You
TTITLE5=You Don't Know What You Mean To Me
TTITLE6=Don't Turn Your Heater On
TTITLE7=Talk To The Man
TTITLE8=Love Is After Me
TTITLE9=Ain't That A Lot Of Love
TTITLE10=Don't Waste That Love
TTITLE11=That Lucky Old Sun (Justs Rolls Around Heaven All Day)
EXTD=
EXTT0=
EXTT1=
EXTT2=
EXTT3=
EXTT4=
EXTT5=
EXTT6=
EXTT7=
EXTT8=
EXTT9=
EXTT10=
EXTT11=
PLAYORDER=
